<svg width="32" height="32" viewBox="0 0 32 32" fill="none" xmlns="http://www.w3.org/2000/svg">
<path fill-rule="evenodd" clip-rule="evenodd" d="M14.5099 16.9048L11.6709 5.2172C11.3393 3.86631 9.92962 3.08223 8.60649 3.51184L5.5339 4.5099C4.21078 4.9395 3.53125 6.40311 4.05724 7.6903L8.631 18.8143C9.10471 19.9758 10.3935 20.5736 11.5876 20.1865L12.9254 19.752C14.1179 19.3648 14.8088 18.1234 14.5099 16.9048ZM14.9346 28.2134C13.208 28.7737 11.3524 27.8296 10.7921 26.103C10.2318 24.3764 11.176 22.5207 12.9026 21.9605C14.6292 21.4002 16.4848 22.3443 17.0451 24.0709C17.607 25.7975 16.6612 27.6532 14.9346 28.2134ZM21.7561 25.2127C25.9689 23.8438 29.3698 18.9875 27.6775 13.7799C25.9852 8.57238 20.3791 6.64323 16.1679 8.01209C15.1878 8.33062 14.6177 9.34992 14.8644 10.3529L15.2956 12.104C15.5684 13.2147 16.7282 13.86 17.8145 13.5071L17.9827 13.4516C19.9201 12.8211 21.7218 13.976 22.22 15.5539C22.746 17.1221 21.9668 19.1149 20.0279 19.7454L19.8596 19.801C18.7733 20.1538 18.2147 21.3577 18.6459 22.4162L19.3255 24.0856C19.7159 25.0412 20.7776 25.5312 21.7561 25.2127Z" fill="#E31E52"/>
</svg>
