<svg xmlns="http://www.w3.org/2000/svg" width="101.59" height="101.59" data-name="tiktok square"><path d="M0 0h101.59v101.59H0Z" data-name="Path 31"/><path fill="#ee1d52" d="m24.889 63.278.2.584c-.022-.064-.1-.267-.2-.584Zm8.241-13.321a9 9 0 0 1 3.949-6.743c3.352-2.451 7.53-1.067 7.53-1.067v-8.242a17.329 17.329 0 0 1 3.035.19v10.6s-4.178-1.384-7.53 1.067a9 9 0 0 0-3.949 6.743 9.724 9.724 0 0 0 1.714 5.892c-.356-.19-.711-.406-1.079-.648a9.036 9.036 0 0 1-3.67-7.792Zm31.8-31.29a14.6 14.6 0 0 1-3.492-7.162h2.9a13.554 13.554 0 0 0 3.632 9.715l.064.063a16.114 16.114 0 0 1-3.1-2.616Zm13.956 7.467v10.388a36.32 36.32 0 0 1-6.438-.876 24.4 24.4 0 0 1-6.273-2.578s-1.7-1.117-1.829-1.194v21.461a21.715 21.715 0 0 1-1.27 6.667 19.491 19.491 0 0 1-10.007 10.667 19.1 19.1 0 0 1-7.975 1.752 19.761 19.761 0 0 1-10.743-3.213 21.326 21.326 0 0 1-3.073-2.578l.025.025a19.633 19.633 0 0 0 10.743 3.213 19.1 19.1 0 0 0 7.975-1.752 19.491 19.491 0 0 0 10.007-10.667 21.715 21.715 0 0 0 1.27-6.667V29.334c.14.076 1.829 1.194 1.829 1.194a24.4 24.4 0 0 0 6.273 2.578 36.318 36.318 0 0 0 6.438.876v-8.14a9.855 9.855 0 0 0 3.046.292Z" data-name="Path 32"/><path fill="#fff" d="M75.839 25.829v8.14a36.318 36.318 0 0 1-6.438-.876 24.4 24.4 0 0 1-6.273-2.578s-1.7-1.117-1.829-1.194v21.461a21.715 21.715 0 0 1-1.27 6.667 19.491 19.491 0 0 1-10.007 10.667 19.1 19.1 0 0 1-7.975 1.752 19.761 19.761 0 0 1-10.743-3.213l-.025-.025a21.452 21.452 0 0 1-1.511-1.714 20.761 20.761 0 0 1-2.87-5.206v-.013a20.937 20.937 0 0 1-1.13-6.933 19.066 19.066 0 0 1 2.324-8.788 20.734 20.734 0 0 1 4.508-5.511 18.919 18.919 0 0 1 5.359-3.175 17.891 17.891 0 0 1 6.654-1.4v8.241s-4.178-1.384-7.53 1.067a8.82 8.82 0 0 0-.267 14.553c.368.241.724.457 1.079.648a8.944 8.944 0 0 0 10.857 2.768 8.338 8.338 0 0 0 4.584-5.041 12.161 12.161 0 0 0 .47-4.165V11.505h7.619a14.487 14.487 0 0 0 3.492 7.162 16.919 16.919 0 0 0 3.1 2.616 16.038 16.038 0 0 0 4.254 3.251 16.215 16.215 0 0 0 3.568 1.3Z" data-name="Path 33"/><g fill="#69c9d0" data-name="Group 4"><path d="m23.861 57.195.19.546c-.025-.063-.101-.254-.19-.546Z" data-name="Path 34"/><path d="M37.957 35.303a18.745 18.745 0 0 0-5.359 3.175 20.549 20.549 0 0 0-4.508 5.524 19.006 19.006 0 0 0-2.324 8.788 21.211 21.211 0 0 0 1.13 6.934v.013a20.984 20.984 0 0 0 2.87 5.206 21.452 21.452 0 0 0 1.511 1.714 21.39 21.39 0 0 1-4.559-4.267 20.346 20.346 0 0 1-2.857-5.181v-.025a20.633 20.633 0 0 1-1.13-6.946 19.066 19.066 0 0 1 2.324-8.788 20.549 20.549 0 0 1 4.508-5.524 19.067 19.067 0 0 1 15.061-4.381v2.362a17.9 17.9 0 0 0-6.667 1.4Z" data-name="Path 35"/><path d="M61.437 11.505h-7.619v40.458a12.481 12.481 0 0 1-.47 4.165 8.447 8.447 0 0 1-4.584 5.041 8.57 8.57 0 0 1-8.889-.851 8.25 8.25 0 0 1-1.968-1.9 8.465 8.465 0 0 0 7.81.2 8.372 8.372 0 0 0 4.584-5.041 12.161 12.161 0 0 0 .47-4.165V8.953h10.527a8.912 8.912 0 0 0 .139 2.552Zm14.4 12.076v2.248a15.1 15.1 0 0 1-7.822-4.546c.394.254.787.483 1.206.7a13.725 13.725 0 0 0 6.616 1.599Z" data-name="Path 36"/></g><path fill="none" d="M61.83 89.081a2.764 2.764 0 0 1-.127-.851v-.025a2.869 2.869 0 0 0 .127.876Zm6.286-.876v.025a2.765 2.765 0 0 1-.127.851 2.869 2.869 0 0 0 .127-.876Z" data-name="Path 37"/><path fill="#69c9d0" d="M61.69 88.229a2.765 2.765 0 0 0 .127.851c0 .025.013.038.013.063a3.216 3.216 0 0 0 3.073 2.26v3.251a7.317 7.317 0 0 1-4.445-.965 6.471 6.471 0 0 1 .279-11.162 7.863 7.863 0 0 1 4.178-.8v3.251a3.208 3.208 0 0 0-3.213 3.213Z" data-name="Path 38"/><path fill="#ee1d52" d="M68.141 88.229a2.764 2.764 0 0 1-.127.851c0 .025-.013.038-.013.063a3.216 3.216 0 0 1-3.073 2.26v3.251a7.279 7.279 0 0 0 4.432-.965 6.358 6.358 0 0 0 3.073-5.5 6.433 6.433 0 0 0-3.34-5.664 7.863 7.863 0 0 0-4.178-.8v3.251a3.208 3.208 0 0 1 3.213 3.213v.038Z" data-name="Path 39"/><path fill="#fff" d="M15.175 78.783h11.9l-1.1 3.276h-3.111v12.534h-3.829V82.059h-3.86Zm31.544 0v3.276h3.86v12.534h3.835V82.059h3.111l1.1-3.276Zm-17.054 3.721a1.854 1.854 0 1 0-1.854-1.854 1.848 1.848 0 0 0 1.853 1.854ZM27.81 94.583h3.759V83.812H27.81Zm17.27-12.165h-4.394l-3.784 3.784v-7.419h-3.733l-.013 15.784h3.772v-4.114l1.168-1.07 3.657 5.181h4.022l-5.3-7.568Zm36.039 4.6 4.6-4.6h-4.394l-3.784 3.784v-7.419h-3.736l-.025 15.8h3.772v-4.114l1.181-1.067 3.657 5.181h4.026Zm-9.664 1.168a6.553 6.553 0 1 1-6.553-6.464 6.509 6.509 0 0 1 6.554 6.461Zm-3.34 0a3.213 3.213 0 1 0-3.213 3.213 3.208 3.208 0 0 0 3.214-3.216Z" data-name="Path 40"/></svg>